<?xml version="1.0" encoding="UTF-8"?>
<svg id="Layer_2" xmlns="http://www.w3.org/2000/svg" xmlns:xlink="http://www.w3.org/1999/xlink" viewBox="0 0 835.68 90.25">
  <defs>
    <style>
      .cls-1 {
        fill: url(#linear-gradient-5);
      }

      .cls-2 {
        fill: url(#linear-gradient-6);
      }

      .cls-3 {
        fill: url(#linear-gradient-4);
      }

      .cls-4 {
        fill: url(#linear-gradient-3);
      }

      .cls-5 {
        fill: url(#linear-gradient-2);
      }

      .cls-6 {
        fill: url(#linear-gradient);
      }

      .cls-7 {
        fill: #fff;
      }
    </style>
    <linearGradient id="linear-gradient" x1="1068.12" y1="-1164.51" x2="1056.38" y2="-1196.75" gradientTransform="translate(1107.96 -1127.47) rotate(-180)" gradientUnits="userSpaceOnUse">
      <stop offset="0" stop-color="#790000"/>
      <stop offset="1" stop-color="#a90004"/>
    </linearGradient>
    <linearGradient id="linear-gradient-2" x1="1051.88" y1="-1209.13" x2="1061.49" y2="-1182.72" gradientTransform="translate(1107.96 -1127.47) rotate(-180)" gradientUnits="userSpaceOnUse">
      <stop offset="0" stop-color="#840000"/>
      <stop offset="1" stop-color="#b50004"/>
    </linearGradient>
    <linearGradient id="linear-gradient-3" x1="13.92" y1="22.54" x2="26.82" y2="57.96" gradientUnits="userSpaceOnUse">
      <stop offset="0" stop-color="#b30000"/>
      <stop offset="1" stop-color="#d70004"/>
    </linearGradient>
    <linearGradient id="linear-gradient-4" x1="10.35" y1="12.73" x2="19.97" y2="39.14" gradientUnits="userSpaceOnUse">
      <stop offset="0" stop-color="#d70004"/>
      <stop offset="1" stop-color="#a70000"/>
    </linearGradient>
    <linearGradient id="linear-gradient-5" x1="27.95" y1="32.73" x2="33.16" y2="47.04" gradientUnits="userSpaceOnUse">
      <stop offset="0" stop-color="#840000"/>
      <stop offset="1" stop-color="#e00004"/>
    </linearGradient>
    <linearGradient id="linear-gradient-6" x1="32.64" y1="45.6" x2="35.46" y2="53.35" gradientUnits="userSpaceOnUse">
      <stop offset="0" stop-color="#a90004"/>
      <stop offset="1" stop-color="#840000"/>
    </linearGradient>
  </defs>
  <g id="Layer_1-2" data-name="Layer_1">
    <g>
      <polygon class="cls-6" points="32.46 57.78 32.46 90.25 64.93 32.47 32.46 57.78"/>
      <polygon class="cls-5" points="32.46 90.25 64.93 32.47 64.93 57.78 32.46 90.25"/>
      <polygon class="cls-4" points="32.47 32.47 32.47 0 0 57.78 32.47 32.47"/>
      <polygon class="cls-3" points="32.47 0 0 57.78 0 32.47 32.47 0"/>
      <polygon class="cls-1" points="64.92 32.47 0 57.78 32.35 32.47 64.92 32.47"/>
      <polygon class="cls-2" points="64.93 32.47 0 57.78 32.46 57.78 64.93 32.47"/>
      <g>
        <path class="cls-7" d="M135.64,45.75c-2.45-1.56-5.52-3.12-9.22-4.69-.1-.05-.21-.1-.31-.16-.1-.05-.21-.1-.31-.16-.52-.21-1.04-.41-1.54-.61s-1.02-.4-1.54-.61c-2.68-1.09-4.76-2.03-6.23-2.81-1.47-.78-2.66-1.71-3.57-2.79-.91-1.08-1.37-2.38-1.37-3.89,0-1.64.51-3.16,1.54-4.55,1.03-1.39,2.42-2.49,4.18-3.3,1.76-.81,3.68-1.21,5.76-1.21,1.69,0,3.32.29,4.88.88s2.94,1.43,4.14,2.54c1.2,1.11,2.12,2.4,2.77,3.89l6.33-4.34c-.83-2.21-2.1-4.17-3.79-5.88-1.69-1.71-3.76-3.03-6.21-3.98-2.45-.95-5.17-1.43-8.16-1.43-3.7,0-7.07.74-10.12,2.21-3.05,1.47-5.46,3.52-7.23,6.15-1.77,2.63-2.66,5.57-2.66,8.83,0,3.05.75,5.62,2.25,7.71,1.5,2.1,3.34,3.78,5.53,5.06,2.19,1.28,4.92,2.6,8.2,3.98.03.03.06.05.12.06.05.01.09.03.12.06,3.46,1.41,6.26,2.64,8.4,3.71,2.13,1.07,3.95,2.37,5.45,3.91,1.5,1.54,2.25,3.29,2.25,5.27,0,1.8-.6,3.41-1.8,4.84-1.2,1.43-2.84,2.55-4.92,3.36-2.08.81-4.4,1.21-6.95,1.21-2.11,0-4.13-.34-6.07-1.02-1.94-.68-3.69-1.65-5.23-2.91-1.55-1.26-2.79-2.74-3.73-4.43l-6.64,4.8c1.09,2.37,2.69,4.47,4.79,6.29,2.1,1.82,4.58,3.25,7.46,4.28,2.88,1.03,6,1.54,9.36,1.54,4.14,0,7.9-.75,11.29-2.25,3.38-1.5,6.07-3.62,8.05-6.37,1.98-2.75,2.97-5.92,2.97-9.51,0-3.1-.76-5.77-2.27-8.01-1.51-2.24-3.49-4.14-5.94-5.7Z"/>
        <path class="cls-7" d="M190.68,52.43c0,3.18-.66,6.04-1.97,8.57-1.32,2.54-3.12,4.53-5.41,5.98-2.29,1.45-4.84,2.17-7.66,2.17s-5.37-.72-7.66-2.17c-2.29-1.45-4.09-3.44-5.39-5.98-1.3-2.54-1.95-5.4-1.95-8.57V13.68h-8.52v38.79c0,4.79,1.03,9.11,3.09,12.95,2.06,3.84,4.88,6.85,8.46,9.02,3.58,2.17,7.58,3.26,12.01,3.26s8.4-1.09,11.99-3.26c3.59-2.17,6.42-5.18,8.48-9.02,2.06-3.84,3.09-8.16,3.09-12.95V13.68h-8.55v38.75Z"/>
        <path class="cls-7" d="M242.88,16.43c-3.4-1.84-7.09-2.75-11.07-2.75h-20.51v62.97h8.48v-22.54h12.03c3.98,0,7.68-.89,11.07-2.68,3.4-1.78,6.09-4.2,8.09-7.25s2.99-6.37,2.99-9.96-1-7.16-2.99-10.31c-1.99-3.15-4.69-5.64-8.09-7.48ZM243.61,39.97c-1.22,1.77-2.88,3.18-4.98,4.22-2.1,1.04-4.37,1.56-6.82,1.56l-12.03-.04v-23.59h12.03c2.45,0,4.72.54,6.82,1.62,2.1,1.08,3.76,2.54,4.98,4.38,1.22,1.84,1.84,3.85,1.84,6.04s-.61,4.05-1.84,5.82Z"/>
        <polygon class="cls-7" points="262.2 76.65 299.43 76.65 299.43 68.17 270.68 68.17 270.68 48.52 295.56 48.52 295.56 40.09 270.68 40.09 270.68 22.04 299.43 22.04 299.43 13.68 262.2 13.68 262.2 76.65"/>
        <path class="cls-7" d="M341.5,49.68c2.79-1.65,5-3.89,6.64-6.7s2.46-5.86,2.46-9.14c0-3.65-.96-7.01-2.87-10.1s-4.5-5.53-7.75-7.34c-3.26-1.81-6.81-2.71-10.66-2.71h-19.06v62.97h8.52v-24.49h9.73l17.26,24.49h10.51l-18.54-25.3c1.3-.41,2.56-.96,3.77-1.68ZM318.72,45.09v-22.97h10.82c2.19,0,4.22.5,6.11,1.5,1.89,1,3.39,2.39,4.51,4.16,1.12,1.77,1.68,3.72,1.68,5.86s-.56,3.96-1.68,5.72c-1.12,1.76-2.62,3.15-4.49,4.18-1.88,1.03-3.92,1.54-6.13,1.54h-10.82Z"/>
        <rect class="cls-7" x="363.22" y="13.68" width="8.48" height="62.97"/>
        <path class="cls-7" d="M482.53,17.51c-4.86-2.55-10.55-3.83-17.09-3.83h-17.73v62.97h17.73c6.54,0,12.23-1.28,17.09-3.83,4.86-2.55,8.6-6.19,11.23-10.92,2.63-4.73,3.95-10.28,3.95-16.66s-1.32-12.02-3.95-16.78c-2.63-4.75-6.38-8.4-11.23-10.96ZM486.22,57.37c-1.93,3.45-4.67,6.11-8.22,7.99s-7.72,2.81-12.48,2.81h-9.38V22.12h9.26c4.79,0,8.98.94,12.56,2.81,3.58,1.88,6.33,4.55,8.26,8.03,1.93,3.48,2.89,7.56,2.89,12.25s-.96,8.72-2.89,12.17Z"/>
        <path class="cls-7" d="M545.17,52.43c0,3.18-.66,6.04-1.97,8.57-1.32,2.54-3.12,4.53-5.41,5.98-2.29,1.45-4.84,2.17-7.66,2.17s-5.37-.72-7.66-2.17c-2.29-1.45-4.09-3.44-5.39-5.98-1.3-2.54-1.95-5.4-1.95-8.57V13.68h-8.52v38.79c0,4.79,1.03,9.11,3.09,12.95,2.06,3.84,4.88,6.85,8.46,9.02,3.58,2.17,7.58,3.26,12.01,3.26s8.4-1.09,11.99-3.26c3.59-2.17,6.42-5.18,8.48-9.02,2.06-3.84,3.09-8.16,3.09-12.95V13.68h-8.55v38.75Z"/>
        <path class="cls-7" d="M597.67,45.75c-2.45-1.56-5.52-3.12-9.22-4.69-.1-.05-.21-.1-.31-.16-.1-.05-.21-.1-.31-.16-.52-.21-1.04-.41-1.54-.61s-1.02-.4-1.54-.61c-2.68-1.09-4.76-2.03-6.23-2.81-1.47-.78-2.66-1.71-3.57-2.79-.91-1.08-1.37-2.38-1.37-3.89,0-1.64.51-3.16,1.54-4.55,1.03-1.39,2.42-2.49,4.18-3.3,1.76-.81,3.68-1.21,5.76-1.21,1.69,0,3.32.29,4.88.88s2.94,1.43,4.14,2.54c1.2,1.11,2.12,2.4,2.77,3.89l6.33-4.34c-.83-2.21-2.1-4.17-3.79-5.88-1.69-1.71-3.76-3.03-6.21-3.98-2.45-.95-5.17-1.43-8.16-1.43-3.7,0-7.07.74-10.12,2.21-3.05,1.47-5.46,3.52-7.23,6.15-1.77,2.63-2.66,5.57-2.66,8.83,0,3.05.75,5.62,2.25,7.71,1.5,2.1,3.34,3.78,5.53,5.06,2.19,1.28,4.92,2.6,8.2,3.98.03.03.06.05.12.06.05.01.09.03.12.06,3.46,1.41,6.26,2.64,8.4,3.71,2.13,1.07,3.95,2.37,5.45,3.91,1.5,1.54,2.25,3.29,2.25,5.27,0,1.8-.6,3.41-1.8,4.84-1.2,1.43-2.84,2.55-4.92,3.36-2.08.81-4.4,1.21-6.95,1.21-2.11,0-4.13-.34-6.07-1.02-1.94-.68-3.69-1.65-5.23-2.91-1.55-1.26-2.79-2.74-3.73-4.43l-6.64,4.8c1.09,2.37,2.69,4.47,4.79,6.29,2.1,1.82,4.58,3.25,7.46,4.28,2.88,1.03,6,1.54,9.36,1.54,4.14,0,7.9-.75,11.29-2.25,3.38-1.5,6.07-3.62,8.05-6.37,1.98-2.75,2.97-5.92,2.97-9.51,0-3.1-.76-5.77-2.27-8.01-1.51-2.24-3.49-4.14-5.94-5.7Z"/>
        <polygon class="cls-7" points="610.33 22.12 627.9 22.12 627.9 76.65 636.42 76.65 636.42 22.12 654 22.12 654 13.68 610.33 13.68 610.33 22.12"/>
        <path class="cls-7" d="M693.53,49.68c2.79-1.65,5-3.89,6.64-6.7s2.46-5.86,2.46-9.14c0-3.65-.96-7.01-2.87-10.1s-4.5-5.53-7.75-7.34c-3.26-1.81-6.81-2.71-10.66-2.71h-19.06v62.97h8.52v-24.49h9.73l17.26,24.49h10.51l-18.54-25.3c1.3-.41,2.56-.96,3.77-1.68ZM670.76,45.09v-22.97h10.82c2.19,0,4.22.5,6.11,1.5,1.89,1,3.39,2.39,4.51,4.16,1.12,1.77,1.68,3.72,1.68,5.86s-.56,3.96-1.68,5.72c-1.12,1.76-2.62,3.15-4.49,4.18-1.88,1.03-3.92,1.54-6.13,1.54h-10.82Z"/>
        <rect class="cls-7" x="715.25" y="13.68" width="8.48" height="62.97"/>
        <path class="cls-7" d="M760.37,12.55l-29.38,64.1h9.22l4.46-9.96h32.09l4.46,9.96h9.18l-29.38-64.1h-.66ZM747.94,59.38l12.77-28.52,12.77,28.52h-25.55Z"/>
        <polygon class="cls-7" points="806.19 68.17 806.19 13.68 797.71 13.68 797.71 76.65 835.68 76.65 835.68 68.17 806.19 68.17"/>
        <polygon class="cls-7" points="384.39 76.73 392.86 76.73 392.86 44.08 384.39 34.93 384.39 76.73"/>
        <polygon class="cls-7" points="426.46 57.52 384.82 12.63 384.39 12.63 384.39 23.55 392.86 32.69 392.86 32.69 393.84 33.74 410.27 51.45 410.27 51.47 434.58 77.7 435.01 77.7 435.01 13.52 426.46 13.52 426.46 57.52"/>
      </g>
    </g>
  </g>
</svg>