<?xml version="1.0" encoding="UTF-8"?>
<svg id="Layer_2" xmlns="http://www.w3.org/2000/svg" xmlns:xlink="http://www.w3.org/1999/xlink" viewBox="0 0 129.86 180.5">
  <defs>
    <style>
      .cls-1 {
        fill: url(#linear-gradient-5);
      }

      .cls-2 {
        fill: url(#linear-gradient-6);
      }

      .cls-3 {
        fill: url(#linear-gradient-4);
      }

      .cls-4 {
        fill: url(#linear-gradient-3);
      }

      .cls-5 {
        fill: url(#linear-gradient-2);
      }

      .cls-6 {
        fill: url(#linear-gradient);
      }
    </style>
    <linearGradient id="linear-gradient" x1="292.52" y1="41.49" x2="269.05" y2="-23" gradientTransform="translate(372.21 115.56) rotate(-180)" gradientUnits="userSpaceOnUse">
      <stop offset="0" stop-color="#790000"/>
      <stop offset="1" stop-color="#a90004"/>
    </linearGradient>
    <linearGradient id="linear-gradient-2" x1="260.05" y1="-47.75" x2="279.27" y2="5.07" gradientTransform="translate(372.21 115.56) rotate(-180)" gradientUnits="userSpaceOnUse">
      <stop offset="0" stop-color="#840000"/>
      <stop offset="1" stop-color="#b50004"/>
    </linearGradient>
    <linearGradient id="linear-gradient-3" x1="27.85" y1="45.07" x2="53.63" y2="115.92" gradientUnits="userSpaceOnUse">
      <stop offset="0" stop-color="#b30000"/>
      <stop offset="1" stop-color="#d70004"/>
    </linearGradient>
    <linearGradient id="linear-gradient-4" x1="20.71" y1="25.46" x2="39.93" y2="78.28" gradientUnits="userSpaceOnUse">
      <stop offset="0" stop-color="#d70004"/>
      <stop offset="1" stop-color="#a70000"/>
    </linearGradient>
    <linearGradient id="linear-gradient-5" x1="55.9" y1="65.46" x2="66.31" y2="94.08" gradientUnits="userSpaceOnUse">
      <stop offset="0" stop-color="#840000"/>
      <stop offset="1" stop-color="#e00004"/>
    </linearGradient>
    <linearGradient id="linear-gradient-6" x1="65.27" y1="91.2" x2="70.92" y2="106.7" gradientUnits="userSpaceOnUse">
      <stop offset="0" stop-color="#a90004"/>
      <stop offset="1" stop-color="#840000"/>
    </linearGradient>
  </defs>
  <g id="Layer_1-2" data-name="Layer_1">
    <g>
      <polygon class="cls-6" points="64.92 115.56 64.92 180.5 129.86 64.94 64.92 115.56"/>
      <polygon class="cls-5" points="64.92 180.5 129.86 64.94 129.86 115.56 64.92 180.5"/>
      <polygon class="cls-4" points="64.94 64.94 64.94 0 0 115.56 64.94 64.94"/>
      <polygon class="cls-3" points="64.94 0 0 115.56 0 64.94 64.94 0"/>
      <polygon class="cls-1" points="129.84 64.94 0 115.56 64.7 64.94 129.84 64.94"/>
      <polygon class="cls-2" points="129.86 64.94 0 115.56 64.92 115.56 129.86 64.94"/>
    </g>
  </g>
</svg>