<svg width="194" height="24" viewBox="0 0 194 24" fill="none" xmlns="http://www.w3.org/2000/svg">
<g clip-path="url(#clip0_85_8)">
<g clip-path="url(#clip1_85_8)">
<path d="M33.8612 19.3212C33.1097 19.3212 32.4067 19.1946 31.7494 18.9387C31.0922 18.6828 30.5346 18.3488 30.0767 17.9313C29.6188 17.5138 29.2983 17.0694 29.1178 16.5926L29.8316 16.0296C30.0417 16.4633 30.3595 16.8566 30.7851 17.2094C31.2107 17.5623 31.6902 17.837 32.2289 18.0364C32.7649 18.2357 33.3064 18.3354 33.8532 18.3354C34.5508 18.3354 35.2 18.2088 35.8033 17.9583C36.404 17.7051 36.8835 17.3549 37.2417 16.9078C37.6 16.4579 37.7777 15.9569 37.7777 15.3993C37.7777 14.8418 37.5865 14.3381 37.2067 13.9394C36.8242 13.5407 36.3609 13.2175 35.8114 12.9724C35.2619 12.7273 34.5535 12.4552 33.6861 12.1616C33.6754 12.1562 33.6619 12.1508 33.6457 12.1455C33.6296 12.1401 33.6188 12.1347 33.6053 12.1293C32.8431 11.8653 32.1912 11.5933 31.6525 11.3158C31.1138 11.0384 30.6612 10.6667 30.2976 10.2061C29.934 9.74546 29.7508 9.17981 29.7508 8.51179C29.7508 7.84378 29.942 7.21617 30.3272 6.65051C30.7124 6.08486 31.2323 5.63772 31.8922 5.31179C32.5521 4.98587 33.2821 4.82425 34.0794 4.82425C34.7771 4.82425 35.3993 4.94546 35.9488 5.19058C36.4983 5.433 36.9481 5.75354 37.3037 6.14411C37.6592 6.53738 37.9205 6.95489 38.0902 7.39395L37.3333 7.87879C37.1744 7.48553 36.9319 7.12997 36.6033 6.80943C36.2747 6.4889 35.8895 6.23839 35.4451 6.05792C35.0033 5.87475 34.5346 5.78587 34.0417 5.78587C33.4599 5.78587 32.9158 5.90708 32.404 6.1522C31.8949 6.39462 31.4882 6.72593 31.1865 7.14614C30.8848 7.56634 30.734 8.02694 30.734 8.53334C30.734 8.96162 30.8525 9.33065 31.0868 9.6431C31.3212 9.95287 31.6309 10.2168 32.0161 10.435C32.4013 10.6532 32.8915 10.8741 33.4895 11.103C33.6484 11.1677 33.8074 11.2269 33.969 11.2835C34.1306 11.3401 34.2922 11.3939 34.4565 11.4478C34.4808 11.4586 34.5023 11.4694 34.5212 11.4774C34.5427 11.4855 34.5643 11.4936 34.5858 11.499C35.4478 11.8088 36.1616 12.1158 36.7272 12.4148C37.2929 12.7138 37.7723 13.1071 38.1656 13.5946C38.5589 14.0822 38.7555 14.6801 38.7555 15.3886C38.7555 16.1562 38.5292 16.8404 38.074 17.4384C37.6188 18.0364 37.0154 18.5024 36.2666 18.8337C35.5151 19.165 34.7124 19.332 33.8558 19.332L33.8612 19.3212Z" fill="#6F6E77"/>
<path d="M46.0228 19.3455C45.0316 19.3455 44.1454 19.095 43.3669 18.594C42.5858 18.0929 41.977 17.4007 41.5407 16.5172C41.1043 15.6337 40.8861 14.6397 40.8861 13.53V4.98587H41.8639V13.5192C41.8639 14.4458 42.039 15.2781 42.3918 16.0135C42.7447 16.7488 43.2349 17.3253 43.8652 17.7374C44.4955 18.1522 45.2147 18.3569 46.0255 18.3569C46.8363 18.3569 47.5474 18.1495 48.1804 17.7374C48.8134 17.3253 49.3063 16.7488 49.6592 16.0135C50.012 15.2781 50.1871 14.4458 50.1871 13.5192V4.98587H51.173V13.53C51.173 14.6397 50.9521 15.6337 50.513 16.5172C50.074 17.4007 49.4625 18.0929 48.6841 18.594C47.9029 19.095 47.0167 19.3455 46.0255 19.3455H46.0228Z" fill="#6F6E77"/>
<path d="M54.2572 4.98587H58.5158C59.4128 4.98587 60.2451 5.18789 61.0101 5.58924C61.775 5.99058 62.3838 6.53469 62.8309 7.21617C63.2808 7.90035 63.5043 8.64378 63.5043 9.44648C63.5043 10.2034 63.2808 10.901 62.8309 11.5394C62.3811 12.1778 61.775 12.6869 61.0101 13.0613C60.2451 13.4357 59.4128 13.6243 58.5158 13.6243H55.235V19.1677H54.2572V4.98587ZM58.5158 12.6761C59.2377 12.6761 59.9057 12.5307 60.5225 12.2397C61.1394 11.9488 61.6269 11.5583 61.9878 11.0653C62.3488 10.5724 62.5293 10.0337 62.5293 9.44648C62.5293 8.81348 62.3488 8.22897 61.9878 7.69563C61.6269 7.1623 61.1394 6.73941 60.5225 6.42425C59.9057 6.1091 59.2377 5.95287 58.5158 5.95287H55.235V12.6573L58.5158 12.6734V12.6761Z" fill="#6F6E77"/>
<path d="M65.6161 4.98587H73.8424V5.95287H66.1521L66.5912 5.50304V18.6397L66.1521 18.1899H73.8424V19.1677H65.6161V4.98587ZM66.4511 11.297H72.8996V12.2748H66.4511V11.297Z" fill="#6F6E77"/>
<path d="M77.581 19.1704H76.6033V4.98587H80.5709C81.4329 4.98587 82.2275 5.18789 82.9548 5.59193C83.6821 5.99597 84.2612 6.54277 84.6895 7.22964C85.1177 7.91651 85.3305 8.66803 85.3305 9.48149C85.3305 10.2195 85.1285 10.9037 84.7272 11.5313C84.3258 12.1589 83.7844 12.6599 83.1029 13.0317C82.4214 13.4034 81.6807 13.5892 80.878 13.5892H77.5784V19.1677L77.581 19.1704ZM80.6248 12.7381C81.2928 12.7381 81.9097 12.5926 82.478 12.299C83.0437 12.0054 83.4935 11.6067 83.8275 11.103C84.1615 10.5993 84.3285 10.0525 84.3285 9.46533C84.3285 8.82695 84.1615 8.23705 83.8275 7.70102C83.4935 7.16499 83.041 6.73941 82.4726 6.42425C81.9043 6.1091 81.2874 5.95287 80.6248 5.95287H77.581V12.7354H80.6248V12.7381ZM86.478 19.1704H85.2363L80.6787 13.002H81.8396L86.4753 19.1704H86.478Z" fill="#6F6E77"/>
<path d="M88.2639 4.98587H89.2417V19.1704H88.2639V4.98587Z" fill="#6F6E77"/>
<path d="M107.154 4.97778H111.017C112.447 4.97778 113.702 5.26869 114.782 5.8532C115.863 6.43772 116.698 7.26735 117.29 8.34209C117.883 9.41953 118.179 10.6667 118.179 12.0862C118.179 13.5057 117.883 14.7502 117.29 15.8168C116.698 16.8835 115.863 17.7104 114.782 18.295C113.702 18.8795 112.447 19.1704 111.017 19.1704H107.154V4.97778ZM107.69 18.1926H111.033C112.264 18.1926 113.344 17.9394 114.271 17.4357C115.197 16.932 115.916 16.2182 116.426 15.297C116.935 14.3758 117.191 13.3064 117.191 12.0862C117.191 10.866 116.935 9.78586 116.426 8.86196C115.916 7.93805 115.195 7.22155 114.26 6.71516C113.328 6.20876 112.242 5.95287 111.003 5.95287H107.688L108.127 5.51381V18.6317L107.688 18.1926H107.69Z" fill="#6F6E77"/>
<path d="M125.595 19.3455C124.603 19.3455 123.717 19.095 122.939 18.594C122.158 18.0929 121.549 17.4007 121.112 16.5172C120.676 15.6337 120.458 14.6397 120.458 13.53V4.98587H121.436V13.5192C121.436 14.4458 121.611 15.2781 121.964 16.0135C122.316 16.7488 122.807 17.3253 123.437 17.7374C124.067 18.1522 124.787 18.3569 125.597 18.3569C126.408 18.3569 127.119 18.1495 127.752 17.7374C128.385 17.3253 128.878 16.7488 129.231 16.0135C129.584 15.2781 129.759 14.4458 129.759 13.5192V4.98587H130.745V13.53C130.745 14.6397 130.524 15.6337 130.085 16.5172C129.646 17.4007 129.034 18.0929 128.256 18.594C127.475 19.095 126.589 19.3455 125.597 19.3455H125.595Z" fill="#6F6E77"/>
<path d="M137.597 19.3212C136.846 19.3212 136.143 19.1946 135.486 18.9387C134.828 18.6828 134.271 18.3488 133.813 17.9313C133.355 17.5138 133.034 17.0694 132.854 16.5926L133.568 16.0296C133.778 16.4633 134.096 16.8566 134.521 17.2094C134.947 17.5623 135.426 17.837 135.965 18.0364C136.501 18.2357 137.042 18.3354 137.589 18.3354C138.287 18.3354 138.936 18.2088 139.539 17.9583C140.14 17.7051 140.62 17.3549 140.978 16.9078C141.336 16.4579 141.514 15.9569 141.514 15.3993C141.514 14.8418 141.323 14.3381 140.943 13.9394C140.56 13.5407 140.097 13.2175 139.547 12.9724C138.998 12.7273 138.29 12.4552 137.422 12.1616C137.411 12.1562 137.398 12.1508 137.382 12.1455C137.366 12.1401 137.355 12.1347 137.341 12.1293C136.579 11.8653 135.927 11.5933 135.389 11.3158C134.85 11.0384 134.397 10.6667 134.034 10.2061C133.67 9.74546 133.487 9.17981 133.487 8.51179C133.487 7.84378 133.678 7.21617 134.063 6.65051C134.448 6.08486 134.968 5.63772 135.628 5.31179C136.288 4.98587 137.018 4.82425 137.816 4.82425C138.513 4.82425 139.135 4.94546 139.685 5.19058C140.234 5.433 140.684 5.75354 141.04 6.14411C141.395 6.53738 141.657 6.95489 141.826 7.39395L141.069 7.87879C140.91 7.48553 140.668 7.12997 140.339 6.80943C140.011 6.4889 139.626 6.23839 139.181 6.05792C138.739 5.87475 138.271 5.78587 137.778 5.78587C137.196 5.78587 136.652 5.90708 136.14 6.1522C135.631 6.39462 135.224 6.72593 134.923 7.14614C134.621 7.56634 134.47 8.02694 134.47 8.53334C134.47 8.96162 134.589 9.33065 134.823 9.6431C135.057 9.95287 135.367 10.2168 135.752 10.435C136.137 10.6532 136.628 10.8741 137.226 11.103C137.385 11.1677 137.543 11.2269 137.705 11.2835C137.867 11.3401 138.028 11.3939 138.193 11.4478C138.217 11.4586 138.238 11.4694 138.257 11.4774C138.279 11.4855 138.3 11.4936 138.322 11.499C139.184 11.8088 139.898 12.1158 140.463 12.4148C141.029 12.7138 141.508 13.1071 141.902 13.5946C142.295 14.0822 142.492 14.6801 142.492 15.3886C142.492 16.1562 142.265 16.8404 141.81 17.4384C141.355 18.0364 140.752 18.5024 140.003 18.8337C139.251 19.165 138.448 19.332 137.592 19.332L137.597 19.3212Z" fill="#6F6E77"/>
<path d="M143.642 4.98587H153.479V5.95287H143.642V4.98587ZM148.075 5.69159H149.053V19.1704H148.075V5.69159Z" fill="#6F6E77"/>
<path d="M156.566 19.1704H155.588V4.98587H159.556C160.418 4.98587 161.212 5.18789 161.939 5.59193C162.667 5.99597 163.246 6.54277 163.674 7.22964C164.102 7.91651 164.315 8.66803 164.315 9.48149C164.315 10.2195 164.113 10.9037 163.712 11.5313C163.31 12.1589 162.769 12.6599 162.088 13.0317C161.406 13.4034 160.665 13.5892 159.863 13.5892H156.563V19.1677L156.566 19.1704ZM159.612 12.7381C160.28 12.7381 160.897 12.5926 161.465 12.299C162.031 12.0054 162.481 11.6067 162.815 11.103C163.149 10.5993 163.316 10.0525 163.316 9.46533C163.316 8.82695 163.149 8.23705 162.815 7.70102C162.481 7.16499 162.028 6.73941 161.46 6.42425C160.892 6.1091 160.275 5.95287 159.612 5.95287H156.568V12.7354H159.612V12.7381ZM165.463 19.1704H164.221L159.663 13.002H160.824L165.46 19.1704H165.463Z" fill="#6F6E77"/>
<path d="M167.248 4.98587H168.226V19.1704H167.248V4.98587Z" fill="#6F6E77"/>
<path d="M176.539 4.82962H176.76L183.219 19.1704H182.155L176.665 6.74747L171.157 19.1704H170.101L176.541 4.82962H176.539ZM172.194 15.7926H181.177V16.6626H172.194V15.7926Z" fill="#6F6E77"/>
<path d="M185.083 4.98587H186.061V18.6424L185.621 18.1926H193.638V19.1704H185.085V4.98587H185.083Z" fill="#6F6E77"/>
<path d="M92.4956 7.45322V19.1892H93.4734V8.60069L92.4956 7.45322Z" fill="#6F6E77"/>
<path d="M102.923 4.95085V16.9266L91.2108 3.43704H91.1488V4.73267L99.9353 14.7933V14.7987L103.836 19.3724H103.898V4.95085H102.923Z" fill="#6F6E77"/>
<path d="M3.44512 8.7569L0 14.8848V8.7569H3.44512Z" fill="url(#paint0_linear_85_8)"/>
<path d="M16.7866 8.7569L0.646484 14.8714L4.08352 8.7569H16.7866Z" fill="url(#paint1_linear_85_8)"/>
<path d="M17.3603 9.134L13.9232 15.2512H1.22021L17.3603 9.134Z" fill="url(#paint2_linear_85_8)"/>
<path d="M18.0903 8.9697V15.2539C18.0768 15.2512 18.0633 15.2485 18.0472 15.2485H14.559L18.0876 8.96701L18.0903 8.9697Z" fill="url(#paint3_linear_85_8)"/>
<path d="M8.27477 0.158936L3.7576 8.19934H0.237061L8.27477 0.158936Z" fill="url(#paint4_linear_85_8)"/>
<path d="M9.00474 0L8.97511 8.19933H4.39868L9.00474 0Z" fill="url(#paint5_linear_85_8)"/>
<path d="M13.6081 15.8087L9.00208 24L9.0317 15.8087H13.6081Z" fill="url(#paint6_linear_85_8)"/>
<path d="M17.7697 15.8087L9.72925 23.8492L14.2491 15.8087H17.7697Z" fill="url(#paint7_linear_85_8)"/>
</g>
</g>
<defs>
<linearGradient id="paint0_linear_85_8" x1="-0.975084" y1="9.12323" x2="1.45993" y2="11.5582" gradientUnits="userSpaceOnUse">
<stop stop-color="#B20004"/>
<stop offset="1" stop-color="#840000"/>
</linearGradient>
<linearGradient id="paint1_linear_85_8" x1="5.43302" y1="8.53063" x2="10.4808" y2="13.5784" gradientUnits="userSpaceOnUse">
<stop stop-color="#A40000"/>
<stop offset="1" stop-color="#F20004"/>
</linearGradient>
<linearGradient id="paint2_linear_85_8" x1="9.37375" y1="12.2774" x2="14.4189" y2="17.3226" gradientUnits="userSpaceOnUse">
<stop stop-color="#840000"/>
<stop offset="1" stop-color="#D30004"/>
</linearGradient>
<linearGradient id="paint3_linear_85_8" x1="15.3266" y1="11.1111" x2="17.8236" y2="13.6081" gradientUnits="userSpaceOnUse">
<stop stop-color="#AA0004"/>
<stop offset="1" stop-color="#740000"/>
</linearGradient>
<linearGradient id="paint4_linear_85_8" x1="4.08083" y1="4.0054" x2="5.47881" y2="5.40338" gradientUnits="userSpaceOnUse">
<stop stop-color="#D30004"/>
<stop offset="1" stop-color="#840000"/>
</linearGradient>
<linearGradient id="paint5_linear_85_8" x1="5.39801" y1="2.79596" x2="8.64111" y2="6.03906" gradientUnits="userSpaceOnUse">
<stop stop-color="#C90004"/>
<stop offset="1" stop-color="#840000"/>
</linearGradient>
<linearGradient id="paint6_linear_85_8" x1="10.7933" y1="19.3912" x2="7.55022" y2="16.1508" gradientUnits="userSpaceOnUse">
<stop stop-color="#840000"/>
<stop offset="1" stop-color="#A00004"/>
</linearGradient>
<linearGradient id="paint7_linear_85_8" x1="13.142" y1="19.2215" x2="11.7441" y2="17.8236" gradientUnits="userSpaceOnUse">
<stop stop-color="#840000"/>
<stop offset="1" stop-color="#A00004"/>
</linearGradient>
<clipPath id="clip0_85_8">
<rect width="193.635" height="24" fill="white"/>
</clipPath>
<clipPath id="clip1_85_8">
<rect width="193.635" height="24" fill="white"/>
</clipPath>
</defs>
</svg>
